<svg xmlns="http://www.w3.org/2000/svg" xmlns:xlink="http://www.w3.org/1999/xlink" version="1.2" viewBox="0 0 245.8 208.75"><defs><symbol id="a" overflow="visible"><path d="M2.4-2.55c.39 0 .71.14.98.4.26.27.4.6.4 1 0 .38-.14.7-.4.98-.27.27-.6.4-.99.4A1.36 1.36 0 011-1.16c0-.4.13-.72.4-.98.26-.27.6-.4 1-.4zm0 0"/></symbol><symbol id="b" overflow="visible"><path d="M9.72-6.47H3.9V0H2v-13.81h1.9v5.78h5.82v-5.78h1.9V0h-1.9zm0 0"/></symbol><symbol id="c" overflow="visible"><path d="M9.9-5.6c0 .32-.03.63-.06.94H3.11c.08 1.17.37 2.03.87 2.58.51.54 1.17.81 1.97.81.51 0 .98-.07 1.4-.21.44-.15.88-.38 1.35-.7l.8 1.1A5.88 5.88 0 015.81.23 4.28 4.28 0 012.38-1.2c-.83-.96-1.24-2.28-1.24-3.97 0-1.1.18-2.06.53-2.9.35-.86.86-1.53 1.52-2a3.85 3.85 0 012.34-.74c1.4 0 2.49.46 3.24 1.39.75.93 1.12 2.2 1.12 3.83zm-1.84-.54c0-1.04-.2-1.83-.62-2.38-.42-.55-1.04-.82-1.86-.82-1.51 0-2.34 1.1-2.47 3.32h4.95zm0 0"/></symbol><symbol id="d" overflow="visible"><path d="M9.02-2.47c0 .43.07.75.21.95.16.22.38.37.68.47L9.48.23c-.55-.06-1-.21-1.32-.45a2.05 2.05 0 01-.74-1.12A3.55 3.55 0 014.27.23 3.39 3.39 0 011.8-.64C1.2-1.24.9-2 .9-2.95c0-1.12.4-1.98 1.2-2.58.82-.6 1.97-.9 3.45-.9h1.62v-.79c0-.75-.18-1.28-.54-1.6-.36-.31-.91-.48-1.66-.48a9.3 9.3 0 00-2.84.57l-.47-1.35c1.3-.49 2.53-.73 3.65-.73 1.24 0 2.17.3 2.78.92.62.6.93 1.47.93 2.6zM4.69-1.14c1.06 0 1.89-.55 2.48-1.64v-2.44H5.8c-1.96 0-2.94.73-2.94 2.17 0 .63.15 1.1.45 1.42.31.33.77.49 1.38.49zm0 0"/></symbol><symbol id="e" overflow="visible"><path d="M6.75-10.81c1.35 0 2.34.48 2.97 1.45.63.96.95 2.31.95 4.06 0 1.66-.37 3-1.1 4.02A3.54 3.54 0 016.53.23c-1.18 0-2.1-.4-2.77-1.2v5.02l-1.84.22v-14.83h1.57l.15 1.42c.38-.53.85-.94 1.4-1.23a3.66 3.66 0 011.72-.44zm-.67 9.54c1.74 0 2.6-1.34 2.6-4.03 0-2.7-.79-4.04-2.38-4.04-.53 0-1 .15-1.42.46-.43.31-.81.7-1.13 1.18v5.15c.27.42.6.74 1 .96.4.22.85.32 1.33.32zm0 0"/></symbol><symbol id="f" overflow="visible"><path d="M5.4-14.05c.93 0 1.72.14 2.38.4.66.26 1.29.66 1.9 1.2l-1.04 1.17a5.78 5.78 0 00-1.53-.9 4.4 4.4 0 00-1.61-.3c-.73 0-1.33.16-1.8.5-.47.33-.7.82-.7 1.45 0 .4.08.75.23 1.03.17.27.47.52.91.75.44.22 1.07.46 1.9.72.87.26 1.59.55 2.16.86.57.3 1.04.72 1.4 1.26.35.55.53 1.23.53 2.07 0 .8-.2 1.5-.6 2.12-.4.62-.96 1.1-1.7 1.44-.74.34-1.62.51-2.64.51C3.29.23 1.72-.36.5-1.55l1.06-1.17a5.09 5.09 0 003.6 1.4c.86 0 1.57-.22 2.14-.63.56-.43.84-1.04.84-1.83 0-.46-.09-.84-.27-1.14-.16-.3-.46-.57-.89-.81a9.28 9.28 0 00-1.82-.72A8 8 0 012.05-8a3.14 3.14 0 01-.99-2.44c0-.7.18-1.31.55-1.86.37-.55.89-.97 1.55-1.28a5.22 5.22 0 012.25-.47zm0 0"/></symbol><symbol id="g" overflow="visible"><path d="M7.23-.48c-.7.48-1.48.71-2.36.71-.9 0-1.59-.25-2.09-.76-.5-.5-.75-1.26-.75-2.24v-6.37H.2v-1.42h1.84v-2.4l1.85-.21v2.6h2.5l-.2 1.43h-2.3v6.3c0 .54.09.93.28 1.18.2.25.52.38.96.38.45 0 .92-.16 1.41-.47zm0 0"/></symbol><symbol id="h" overflow="visible"><path d="M5.75-10.81a4.7 4.7 0 013.23 1.16L8.1-8.5a3.51 3.51 0 00-2.27-.78 2.3 2.3 0 00-2 1.03c-.46.68-.7 1.68-.7 3.02 0 1.33.24 2.32.7 2.95.48.64 1.14.95 2 .95.42 0 .8-.06 1.15-.19.35-.12.74-.32 1.17-.6l.84 1.2A5.05 5.05 0 015.75.23 4.2 4.2 0 012.37-1.2C1.56-2.16 1.15-3.5 1.15-5.2c0-1.12.19-2.1.56-2.95a4.25 4.25 0 014.05-2.67zm0 0"/></symbol><symbol id="i" overflow="visible"><path d="M3.75 0H1.91v-14.81l1.84-.22zm2.19-5.9L10.27 0h-2.2l-4.2-5.78 3.9-4.78h2.06zm0 0"/></symbol><symbol id="j" overflow="visible"><path d="M4.53-12.84c-.55.82-1 1.55-1.31 2.2a9.46 9.46 0 00-.77 2.19c-.18.8-.28 1.77-.28 2.87 0 1.09.1 2.04.28 2.86.2.81.44 1.55.77 2.2.32.66.76 1.39 1.31 2.2l-.92.63C2.9 1.31 2.36.5 1.98-.14c-.37-.65-.7-1.41-.95-2.31C.77-3.35.64-4.4.64-5.58c0-1.19.13-2.22.4-3.12.25-.9.57-1.67.94-2.32.38-.64.92-1.46 1.63-2.46zm0 0"/></symbol><symbol id="k" overflow="visible"><path d="M7.77 0H6.52l-.13-1.31c-.31.52-.68.9-1.1 1.14-.41.24-.92.36-1.5.36-.74 0-1.31-.23-1.73-.67a2.66 2.66 0 01-.62-1.9V-8.4H2.9v5.88c0 .57.1.98.3 1.22.2.24.53.36 1 .36.8 0 1.5-.49 2.09-1.46v-6h1.47zm0 0"/></symbol><symbol id="l" overflow="visible"><path d="M5.47-8.6c.77 0 1.37.24 1.8.7.42.44.64 1.07.64 1.87V0H6.44v-5.83c0-.6-.11-1-.33-1.25-.22-.25-.55-.37-.99-.37-.44 0-.84.13-1.18.39-.34.25-.65.61-.96 1.1V0H1.52v-8.4h1.26l.13 1.24c.29-.44.65-.8 1.09-1.04.45-.26.94-.4 1.47-.4zm0 0"/></symbol><symbol id="m" overflow="visible"><path d="M3.8-8.6a4.62 4.62 0 012.86.95l-.63.93a5.47 5.47 0 00-1.1-.53 3.19 3.19 0 00-1.09-.19c-.48 0-.86.1-1.14.3-.27.2-.4.47-.4.81 0 .34.13.6.39.8.26.19.72.37 1.4.55.94.24 1.64.56 2.1.96.47.41.7.97.7 1.66 0 .84-.32 1.47-.97 1.9A4.1 4.1 0 013.58.2 4.63 4.63 0 01.4-.91l.78-.89c.7.55 1.49.82 2.36.82.55 0 .99-.12 1.3-.35.33-.22.5-.54.5-.94 0-.28-.06-.52-.18-.68a1.46 1.46 0 00-.6-.47c-.3-.13-.72-.28-1.27-.42a4.5 4.5 0 01-1.94-.94c-.4-.4-.6-.9-.6-1.5 0-.44.13-.83.4-1.19.25-.36.61-.64 1.07-.83.47-.2 1-.3 1.57-.3zm0 0"/></symbol><symbol id="n" overflow="visible"><path d="M7.86-4.45l-.03.75H2.47c.06.93.3 1.6.7 2.04.4.44.93.66 1.56.66.41 0 .78-.05 1.11-.17.35-.13.7-.31 1.08-.56l.64.87C6.66-.16 5.7.2 4.63.2A3.41 3.41 0 011.88-.95a4.7 4.7 0 01-.98-3.16c0-.87.14-1.65.42-2.33.28-.67.68-1.2 1.2-1.58a3.12 3.12 0 011.88-.57 3.1 3.1 0 012.56 1.1c.6.74.89 1.75.89 3.04zM6.4-4.87c0-.84-.17-1.47-.5-1.91-.33-.44-.82-.66-1.47-.66-1.21 0-1.87.89-1.97 2.66H6.4zm0 0"/></symbol><symbol id="o" overflow="visible"><path d="M8.03-11.8V0h-1.3L6.6-1.17c-.28.43-.63.76-1.04 1-.42.24-.89.36-1.4.36-.99 0-1.76-.4-2.32-1.17a5.36 5.36 0 01-.85-3.18c0-.86.13-1.63.4-2.3.26-.67.65-1.2 1.15-1.57a3.05 3.05 0 014.03.47v-4.4zM4.48-.97a2 2 0 001.14-.31c.33-.2.64-.52.94-.94v-4.1a3.3 3.3 0 00-.89-.84 2.03 2.03 0 00-1.06-.28c-.65 0-1.15.28-1.52.82a4.46 4.46 0 00-.53 2.42c0 1.1.17 1.9.5 2.43.33.54.8.8 1.42.8zm0 0"/></symbol><symbol id="p" overflow="visible"><path d="M1.56-13.48c.7 1 1.24 1.82 1.61 2.46a10.14 10.14 0 011.36 5.44c0 1.18-.13 2.22-.39 3.13a10 10 0 01-.97 2.3c-.37.64-.91 1.46-1.6 2.46l-.93-.64C1.2.87 1.63.14 1.95-.52c.32-.65.58-1.39.77-2.2.19-.82.28-1.77.28-2.86 0-1.1-.1-2.06-.28-2.87a9.64 9.64 0 00-.77-2.2c-.32-.64-.76-1.37-1.3-2.2zm0 0"/></symbol><symbol id="z" overflow="visible"><path d="M5.47-8.6c.77 0 1.37.24 1.8.7.42.44.64 1.07.64 1.87V0H6.44v-5.83c0-.6-.12-1-.35-1.25-.21-.25-.54-.37-.98-.37-.44 0-.83.13-1.17.39-.34.25-.65.6-.96 1.08V0H1.52v-11.77l1.46-.17v4.69a2.97 2.97 0 012.49-1.34zm0 0"/></symbol><symbol id="A" overflow="visible"><path d="M2.98 0H1.52v-8.4h1.46zm-.75-12.44c.32 0 .57.1.75.28.2.2.29.43.29.72 0 .3-.1.53-.29.72-.18.18-.43.27-.75.27-.3 0-.54-.09-.73-.27a.97.97 0 01-.28-.72c0-.29.1-.53.28-.72a.99.99 0 01.73-.28zm0 0"/></symbol><symbol id="B" overflow="visible"><path d="M8.3-8.03a4.1 4.1 0 01-1.07.22c-.37.03-.84.04-1.39.04 1 .45 1.49 1.16 1.49 2.13 0 .84-.3 1.51-.88 2.05-.57.53-1.35.8-2.34.8a3.5 3.5 0 01-1.06-.16c-.13.08-.23.2-.32.34-.07.15-.1.3-.1.44 0 .46.36.69 1.1.69h1.35c.56 0 1.06.1 1.5.3.44.2.77.48 1 .84.24.34.36.73.36 1.18 0 .82-.34 1.46-1 1.9A5.4 5.4 0 014 3.38c-.9 0-1.63-.1-2.16-.28-.52-.18-.89-.45-1.1-.83A2.83 2.83 0 01.4.84h1.3c0 .35.07.62.2.82.13.2.36.34.68.43.34.1.8.16 1.41.16.88 0 1.52-.1 1.9-.33.37-.22.57-.54.57-.98a1 1 0 00-.45-.9c-.3-.19-.72-.29-1.25-.29H3.45C2.73-.25 2.2-.4 1.83-.7c-.37-.32-.55-.7-.55-1.14 0-.28.08-.55.24-.8.15-.26.38-.49.68-.69-.49-.26-.85-.58-1.08-.95a2.57 2.57 0 01-.34-1.38c0-.57.14-1.07.42-1.51.28-.45.67-.8 1.16-1.05.5-.25 1.05-.37 1.66-.37.66 0 1.21-.02 1.65-.08a6.86 6.86 0 002.19-.67zm-4.28.48c-.56 0-.98.17-1.29.52a2 2 0 00-.45 1.37 2 2 0 00.45 1.38c.32.34.75.51 1.32.51.57 0 1-.16 1.3-.5.32-.33.48-.8.48-1.4 0-1.25-.6-1.88-1.81-1.88zm0 0"/></symbol><symbol id="C" overflow="visible"><path d="M5.17-8.6c.3 0 .57.04.83.1l-.27 1.44c-.26-.07-.5-.1-.73-.1-.52 0-.95.2-1.27.58-.32.38-.57.97-.75 1.78V0H1.52v-8.4h1.26l.14 1.7c.22-.63.52-1.1.9-1.4.4-.33.84-.5 1.35-.5zm0 0"/></symbol><symbol id="q" overflow="visible"><path d="M4.9-13.83c2.08 0 3.76.5 5.02 1.47 1.26.97 1.9 2.76 1.9 5.38 0 2.55-.64 4.35-1.9 5.4A6.94 6.94 0 015.32 0H2v-13.83zm-1 1.53v10.8h1.55c1.3 0 2.34-.4 3.14-1.19.8-.79 1.2-2.22 1.2-4.3 0-1.45-.2-2.57-.62-3.35a3.22 3.22 0 00-1.6-1.57c-.63-.25-1.38-.39-2.26-.39zm0 0"/></symbol><symbol id="r" overflow="visible"><path d="M9.03-2.47c0 .43.07.75.22.95.14.22.36.37.66.47L9.48.23a2.87 2.87 0 01-1.32-.45 2.05 2.05 0 01-.74-1.12A3.55 3.55 0 014.27.23 3.39 3.39 0 011.8-.64C1.2-1.24.9-2 .9-2.95a3 3 0 011.2-2.58c.82-.6 1.97-.9 3.46-.9H7.2v-.79c0-.75-.19-1.28-.55-1.6-.37-.33-.92-.5-1.67-.5a9.3 9.3 0 00-2.84.57l-.46-1.34c1.3-.48 2.52-.72 3.64-.72 1.25 0 2.18.3 2.8.92.61.6.92 1.47.92 2.6zM4.7-1.14c1.06 0 1.9-.55 2.5-1.64v-2.44h-1.4c-1.94 0-2.92.73-2.92 2.17 0 .63.15 1.1.46 1.42.31.33.76.49 1.36.49zm0 0"/></symbol><symbol id="s" overflow="visible"><path d="M7.25-.48c-.7.48-1.5.71-2.38.71-.9 0-1.59-.25-2.09-.76-.5-.5-.75-1.26-.75-2.24v-6.39H.2v-1.42h1.84v-2.37l1.85-.24v2.61h2.5l-.2 1.42h-2.3v6.32c0 .54.09.93.28 1.18.2.25.52.38.98.38.44 0 .9-.16 1.4-.47zm0 0"/></symbol><symbol id="t" overflow="visible"><path d="M4.5-11.28c1.1 0 1.96.51 2.56 1.53.6 1.02.9 2.42.9 4.2 0 1.84-.3 3.25-.9 4.25C6.46-.3 5.61.2 4.5.2 3.38.2 2.52-.3 1.92-1.3c-.6-1-.89-2.41-.89-4.25 0-1.78.3-3.18.9-4.2a2.83 2.83 0 012.57-1.53zm0 1.1c-.69 0-1.23.41-1.6 1.24a8.42 8.42 0 00-.57 3.4c0 .77.05 1.47.15 2.07L6.3-8.4a3.1 3.1 0 00-.74-1.3c-.3-.32-.65-.48-1.06-.48zm0 9.27c.69 0 1.22-.4 1.6-1.2.38-.8.57-1.94.57-3.44 0-.7-.04-1.3-.12-1.8L2.73-2.47c.39 1.05.98 1.57 1.77 1.57zm0 0"/></symbol><symbol id="u" overflow="visible"><path d="M9.25-9.1a5 5 0 01-1.14.24c-.42.03-.95.06-1.6.06 1.1.5 1.66 1.3 1.66 2.43a3 3 0 01-.97 2.3c-.63.6-1.5.88-2.6.88a3.8 3.8 0 01-1.2-.17c-.16.1-.3.24-.38.4a.98.98 0 00-.15.52c0 .55.43.81 1.3.81H5.7c.63 0 1.19.12 1.67.35.48.22.85.53 1.1.92.28.38.41.82.41 1.31 0 .93-.37 1.63-1.1 2.11-.73.5-1.82.74-3.25.74-1.48 0-2.53-.23-3.13-.67C.8 2.67.5 1.96.5.96h1.37c0 .4.08.7.23.94.16.23.43.41.8.53.38.11.93.17 1.63.17 1 0 1.73-.13 2.17-.4.43-.24.65-.63.65-1.15 0-.46-.17-.8-.51-1.04a2.53 2.53 0 00-1.46-.36H3.9a2.8 2.8 0 01-1.8-.5 1.55 1.55 0 01-.62-1.27c0-.31.08-.6.26-.89.18-.29.43-.55.77-.77a2.91 2.91 0 01-1.2-1.06A3.07 3.07 0 01.92-6.4c0-.63.15-1.2.45-1.7.32-.5.74-.88 1.29-1.16a4.03 4.03 0 011.86-.42c.75.01 1.38 0 1.87-.06a7.24 7.24 0 002.4-.72zm-4.73.5c-.66 0-1.17.2-1.52.62-.36.4-.53.93-.53 1.57 0 .67.18 1.2.55 1.61.36.4.87.61 1.53.61.67 0 1.19-.19 1.54-.58.36-.38.54-.93.54-1.64 0-.7-.18-1.25-.54-1.62-.35-.38-.88-.56-1.57-.56zm0 0"/></symbol><symbol id="v" overflow="visible"><path d="M5.77-9.69c.35 0 .66.04.93.11l-.28 1.49c-.28-.07-.56-.11-.83-.11-.59 0-1.07.22-1.45.65a4.64 4.64 0 00-.86 2.07V0H1.77v-9.47h1.3l.13 1.99c.25-.72.59-1.27 1.02-1.64a2.3 2.3 0 011.55-.57zm0 0"/></symbol><symbol id="w" overflow="visible"><path d="M5.23-9.69c1.32 0 2.35.45 3.07 1.33.72.89 1.1 2.09 1.1 3.61 0 1.51-.38 2.72-1.12 3.63A3.72 3.72 0 015.22.22c-1.3 0-2.33-.44-3.06-1.33a5.5 5.5 0 01-1.1-3.6c0-1.52.37-2.72 1.11-3.62a3.73 3.73 0 013.06-1.36zm0 1.24c-.82 0-1.45.3-1.89.93a4.85 4.85 0 00-.65 2.8c0 1.24.2 2.17.64 2.78.44.62 1.06.92 1.89.92.83 0 1.47-.3 1.9-.92.44-.62.66-1.56.66-2.81 0-1.24-.22-2.16-.66-2.78a2.16 2.16 0 00-1.89-.92zm0 0"/></symbol><symbol id="x" overflow="visible"><path d="M10.27 0H8.19L6.44-8.1 4.64 0H2.63L.38-9.47H1.9l1.78 8.4 1.95-8.4h1.69l1.87 8.4 1.8-8.4h1.44zm0 0"/></symbol><symbol id="y" overflow="visible"><path d="M4.27-9.69A4.91 4.91 0 017.44-8.6l-.66.95a5.83 5.83 0 00-1.22-.62c-.38-.13-.8-.2-1.25-.2-.56 0-1 .12-1.34.36-.33.24-.49.57-.49.98 0 .4.15.7.46.92.31.22.86.44 1.65.66a5.9 5.9 0 012.35 1.1c.5.43.76 1.05.76 1.83 0 .91-.35 1.61-1.06 2.11-.71.5-1.57.74-2.6.74C2.64.22 1.45-.2.5-1.03l.81-.9c.85.61 1.74.91 2.7.91a2.6 2.6 0 001.54-.4c.38-.28.58-.65.58-1.11 0-.35-.08-.62-.2-.83-.14-.2-.38-.39-.71-.55a8.5 8.5 0 00-1.45-.48 4.81 4.81 0 01-2.2-1.05A2.3 2.3 0 01.93-7.1c0-.49.14-.93.42-1.31.3-.4.7-.7 1.2-.92.51-.23 1.09-.35 1.73-.35zm0 0"/></symbol><symbol id="H" overflow="visible"><path d="M7.2-6.55c1.9.32 2.86 1.33 2.86 3.03C10.06-1.17 8.46 0 5.25 0h-3.4v-12.4h2.88c1.54 0 2.71.27 3.54.8A2.6 2.6 0 019.5-9.28c0 .73-.22 1.34-.66 1.82a3 3 0 01-1.64.9zm-3.8-4.6v4.06h2.02c.73 0 1.32-.18 1.78-.54.47-.36.7-.87.7-1.53 0-.73-.24-1.25-.74-1.54a4.65 4.65 0 00-2.27-.44zm1.85 9.88c1.02 0 1.8-.16 2.34-.48.54-.32.82-.91.82-1.77 0-.82-.27-1.42-.79-1.8a3.38 3.38 0 00-2.04-.57H3.4v4.62zm0 0"/></symbol><symbol id="I" overflow="visible"><path d="M8.72 0h-1.3L7.3-1.53C6.93-.93 6.5-.5 6.03-.2 5.56.08 5 .22 4.31.22c-.83 0-1.48-.25-1.95-.75-.46-.5-.69-1.23-.69-2.16v-6.78H3.2v6.63c0 .66.11 1.14.36 1.43.24.28.63.43 1.18.43.97 0 1.8-.57 2.47-1.7v-6.79h1.52zm0 0"/></symbol><symbol id="J" overflow="visible"><path d="M4.88-12.23c-.52 0-.89.1-1.11.32-.23.22-.35.58-.35 1.08v1.36h2.35L5.59-8.3H3.42V0H1.91v-8.3H.23v-1.17h1.68v-1.34c0-.81.25-1.46.75-1.94s1.21-.72 2.12-.72a5.67 5.67 0 012.25.48l-.48 1.12a4.13 4.13 0 00-1.67-.36zm0 0"/></symbol><symbol id="K" overflow="visible"><path d="M8.8-5.05c0 .3-.01.57-.03.83H2.66c.07 1.1.34 1.9.8 2.42.48.51 1.1.77 1.85.77.47 0 .9-.06 1.27-.19.38-.13.79-.35 1.22-.66l.65.91A5.04 5.04 0 015.2.22c-1.29 0-2.3-.43-3.04-1.3a5.34 5.34 0 01-1.1-3.56c0-.99.16-1.86.47-2.63.31-.75.76-1.35 1.34-1.78.6-.42 1.29-.64 2.08-.64 1.25 0 2.2.42 2.86 1.24.66.82.99 1.96.99 3.4zM7.3-5.47c0-.98-.2-1.72-.6-2.23-.38-.52-.96-.78-1.73-.78-.68 0-1.23.26-1.64.78-.4.5-.62 1.3-.68 2.37H7.3zm0 0"/></symbol><symbol id="L" overflow="visible"><path d="M6.23-12.6a4.78 4.78 0 014.52 2.94c.44.96.66 2.12.66 3.49 0 1.34-.22 2.5-.66 3.45A4.86 4.86 0 018.94-.53c-.78.5-1.67.75-2.7.75a4.99 4.99 0 01-2.72-.74 4.96 4.96 0 01-1.83-2.17 8.44 8.44 0 01-.64-3.47c0-1.33.2-2.48.64-3.45a5.05 5.05 0 011.83-2.22c.78-.5 1.7-.76 2.71-.76zm0 1.3c-1.1 0-1.96.43-2.59 1.27-.62.83-.94 2.12-.94 3.87 0 1.73.32 3.02.94 3.85a3.1 3.1 0 002.6 1.23c1.12 0 1.98-.4 2.59-1.23.61-.82.92-2.11.92-3.86s-.3-3.04-.92-3.88a3.01 3.01 0 00-2.6-1.25zm0 0"/></symbol><symbol id="M" overflow="visible"><path d="M5.33 0H3.48L.2-9.47h1.66l2.56 8.13 2.55-8.13h1.6zm0 0"/></symbol><symbol id="N" overflow="visible"><path d="M1.1-6.28h5.04v1.3H1.11zm0 0"/></symbol><symbol id="O" overflow="visible"><path d="M3.56.22C2.98.22 2.52.05 2.17-.3c-.33-.35-.5-.85-.5-1.5v-11.48l1.52-.19v11.63c0 .27.04.47.14.6s.26.2.48.2c.23 0 .43-.04.61-.12l.4 1.07c-.38.2-.8.3-1.26.3zm0 0"/></symbol><symbol id="D" overflow="visible"><path d="M7.19-1.97c0 .34.05.6.17.77.12.16.3.29.53.37L7.56.2C7.13.13 6.77.02 6.5-.17c-.26-.2-.45-.5-.58-.9A2.85 2.85 0 013.41.18c-.84 0-1.5-.24-1.97-.7a2.44 2.44 0 01-.72-1.83c0-.9.32-1.59.97-2.07a4.53 4.53 0 012.73-.71h1.3v-.63c0-.6-.15-1.03-.44-1.28-.28-.26-.72-.4-1.31-.4a7.4 7.4 0 00-2.28.46l-.36-1.08a8.6 8.6 0 012.9-.56c1 0 1.73.25 2.22.73.5.49.74 1.17.74 2.07zM3.73-.9c.85 0 1.5-.43 1.99-1.3v-1.95h-1.1c-1.56 0-2.34.58-2.34 1.74 0 .5.12.88.36 1.14.25.25.61.37 1.1.37zm0 0"/></symbol><symbol id="E" overflow="visible"><path d="M8.05-11.81V0h-1.3l-.16-1.17A2.76 2.76 0 014.17.19c-1 0-1.78-.4-2.34-1.17a5.39 5.39 0 01-.85-3.2c0-.86.14-1.62.41-2.29.27-.67.66-1.2 1.16-1.58a3.02 3.02 0 014.02.47v-4.4zM4.48-.97c.45 0 .84-.1 1.16-.31.32-.2.63-.52.92-.94v-4.12a3.1 3.1 0 00-.89-.83 2 2 0 00-1.04-.28 1.7 1.7 0 00-1.52.83 4.46 4.46 0 00-.53 2.42c0 1.08.16 1.9.48 2.43.33.54.8.8 1.42.8zm0 0"/></symbol><symbol id="F" overflow="visible"><path d="M5.17-8.6c.3 0 .58.02.85.08l-.29 1.44c-.25-.06-.5-.1-.73-.1-.52 0-.95.2-1.27.59-.3.37-.56.96-.75 1.78V0H1.52v-8.42h1.26l.14 1.7c.23-.62.53-1.1.9-1.4.4-.33.84-.49 1.35-.49zm0 0"/></symbol><symbol id="G" overflow="visible"><path d="M1.9-2.03c.32 0 .58.1.79.33.22.2.33.47.33.78 0 .3-.11.56-.33.78-.21.22-.47.33-.78.33A1.08 1.08 0 01.8-.92c0-.31.1-.57.3-.78.23-.22.5-.33.8-.33zm0 0"/></symbol></defs><path fill="#f0f0f0" fill-rule="evenodd" d="M72.76 155.91h96.37v-22.68H72.76zm0 0"/><path fill="none" stroke="#000" stroke-linejoin="round" stroke-miterlimit="10" stroke-width="1.5" d="M72 79.37h97.88"/><path fill="none" stroke="#7d7d7d" stroke-linejoin="round" stroke-miterlimit="10" stroke-width="1.5" d="M72 133.23h97.88"/><path fill="none" stroke="#000" stroke-linejoin="round" stroke-miterlimit="10" stroke-width="1.5" d="M72 155.91h97.88M72.76 0v204.84M169.13 0v204.84M72 204.09h97.88"/><g transform="translate(-87.24 -154.07)"><use width="100%" height="100%" x="201" y="186.72" xlink:href="#a"/><use width="100%" height="100%" x="205.8" y="186.72" xlink:href="#a"/><use width="100%" height="100%" x="210.6" y="186.72" xlink:href="#a"/></g><g transform="translate(-87.24 -154.07)"><use width="100%" height="100%" x="184.44" y="210.72" xlink:href="#b"/><use width="100%" height="100%" x="198.07" y="210.72" xlink:href="#c"/></g><g transform="translate(-87.24 -154.07)"><use width="100%" height="100%" x="209.15" y="210.72" xlink:href="#d"/><use width="100%" height="100%" x="220.05" y="210.72" xlink:href="#e"/></g><g transform="translate(-87.24 -154.07)"><use width="100%" height="100%" x="183.72" y="267.14" xlink:href="#f"/><use width="100%" height="100%" x="194.64" y="267.14" xlink:href="#g"/><use width="100%" height="100%" x="201.88" y="267.14" xlink:href="#d"/><use width="100%" height="100%" x="212.78" y="267.14" xlink:href="#h"/><use width="100%" height="100%" x="222.36" y="267.14" xlink:href="#i"/></g><g fill="#7d7d7d" transform="translate(-87.24 -154.07)"><use width="100%" height="100%" x="176.23" y="304.1" xlink:href="#j"/><use width="100%" height="100%" x="181.4" y="304.1" xlink:href="#k"/></g><g fill="#7d7d7d" transform="translate(-87.24 -154.07)"><use width="100%" height="100%" x="190.63" y="304.1" xlink:href="#l"/><use width="100%" height="100%" x="199.98" y="304.1" xlink:href="#k"/><use width="100%" height="100%" x="209.27" y="304.1" xlink:href="#m"/></g><g fill="#7d7d7d" transform="translate(-87.24 -154.07)"><use width="100%" height="100%" x="216.67" y="304.1" xlink:href="#n"/><use width="100%" height="100%" x="225.45" y="304.1" xlink:href="#o"/><use width="100%" height="100%" x="234.99" y="304.1" xlink:href="#p"/></g><g transform="translate(-87.24 -154.07)"><use width="100%" height="100%" x="187.15" y="340.85" xlink:href="#q"/><use width="100%" height="100%" x="200.07" y="340.85" xlink:href="#r"/><use width="100%" height="100%" x="210.99" y="340.85" xlink:href="#s"/><use width="100%" height="100%" x="218.23" y="340.85" xlink:href="#r"/></g><path fill="#7d7d7d" d="M46.5 201.97h14.49v1.56h-14.5zm13.49-2.22l6 3-6 3zm0 0"/><use width="100%" height="100%" x="120.05" y="362.62" fill="#7d7d7d" transform="translate(-87.24 -154.07)" xlink:href="#t"/><path fill="#7d7d7d" d="M57 79.63v47.19h1.56v-47.2zm-3.46 38.47l4.24 10.87L62 118.1a.8.8 0 00-.45-1.01.78.78 0 00-1.02.44l-3.5 9h1.47l-3.5-9a.78.78 0 00-1.02-.44.8.8 0 00-.45 1.01zm0 0"/><path fill="none" stroke="#7d7d7d" stroke-miterlimit="8" stroke-width="1.56" d="M62.81 79.15H52.13"/><g transform="translate(-87.24 -154.07)"><use width="100%" height="100%" x="86.76" y="263.52" xlink:href="#u"/><use width="100%" height="100%" x="96.05" y="263.52" xlink:href="#v"/></g><g transform="translate(-87.24 -154.07)"><use width="100%" height="100%" x="102.83" y="263.52" xlink:href="#w"/><use width="100%" height="100%" x="113.29" y="263.52" xlink:href="#x"/><use width="100%" height="100%" x="126.13" y="263.52" xlink:href="#y"/></g><g fill="#7d7d7d" transform="translate(-87.24 -154.07)"><use width="100%" height="100%" x="100.66" y="172.32" xlink:href="#z"/><use width="100%" height="100%" x="110.01" y="172.32" xlink:href="#A"/></g><g fill="#7d7d7d" transform="translate(-87.24 -154.07)"><use width="100%" height="100%" x="114.56" y="172.32" xlink:href="#B"/><use width="100%" height="100%" x="122.86" y="172.32" xlink:href="#z"/><use width="100%" height="100%" x="132.21" y="172.32" xlink:href="#n"/><use width="100%" height="100%" x="140.99" y="172.32" xlink:href="#C"/></g><use width="100%" height="100%" x="109.3" y="191.52" fill="#7d7d7d" transform="translate(-87.24 -154.07)" xlink:href="#D"/><g fill="#7d7d7d" transform="translate(-87.24 -154.07)"><use width="100%" height="100%" x="117.95" y="191.52" xlink:href="#E"/><use width="100%" height="100%" x="127.51" y="191.52" xlink:href="#E"/></g><use width="100%" height="100%" x="137.13" y="191.52" fill="#7d7d7d" transform="translate(-87.24 -154.07)" xlink:href="#F"/><use width="100%" height="100%" x="143.26" y="191.52" fill="#7d7d7d" transform="translate(-87.24 -154.07)" xlink:href="#G"/><path fill="#bf0000" d="M183.36 132.33V92.94h-1.57v39.39zm3.45-30.67l-4.23-10.87-4.23 10.87a.8.8 0 00.44 1c.4.17.86-.03 1.02-.43l3.5-9h-1.46l3.5 9c.16.4.6.6 1 .44.4-.16.6-.61.46-1.01zm0 0"/><path fill="none" stroke="#bf0000" stroke-miterlimit="8" stroke-width="1.56" d="M177.18 132.79h11.13"/><g fill="#bf0000" transform="translate(-87.24 -154.07)"><use width="100%" height="100%" x="283.18" y="250.08" xlink:href="#H"/><use width="100%" height="100%" x="294.09" y="250.08" xlink:href="#I"/><use width="100%" height="100%" x="304.55" y="250.08" xlink:href="#J"/><use width="100%" height="100%" x="310.52" y="250.08" xlink:href="#J"/><use width="100%" height="100%" x="316.5" y="250.08" xlink:href="#K"/><use width="100%" height="100%" x="326.34" y="250.08" xlink:href="#v"/></g><g fill="#bf0000" transform="translate(-87.24 -154.07)"><use width="100%" height="100%" x="283.18" y="271.68" xlink:href="#L"/><use width="100%" height="100%" x="295.64" y="271.68" xlink:href="#M"/><use width="100%" height="100%" x="304.4" y="271.68" xlink:href="#K"/><use width="100%" height="100%" x="314.25" y="271.68" xlink:href="#v"/></g><use width="100%" height="100%" x="321.1" y="271.68" fill="#bf0000" transform="translate(-87.24 -154.07)" xlink:href="#N"/><g fill="#bf0000" transform="translate(-87.24 -154.07)"><use width="100%" height="100%" x="283.18" y="293.28" xlink:href="#J"/><use width="100%" height="100%" x="289.16" y="293.28" xlink:href="#O"/></g><g fill="#bf0000" transform="translate(-87.24 -154.07)"><use width="100%" height="100%" x="294.45" y="293.28" xlink:href="#w"/><use width="100%" height="100%" x="304.91" y="293.28" xlink:href="#x"/></g></svg>