<svg xmlns="http://www.w3.org/2000/svg" viewBox="0 0 400 250"><g transform="translate(0 -47)"><path d="M0 47h400v250H0z"/><path d="M.1 172.2V47.4H400V297H0z"/><path d="M.1 172.2V47.4H400V297H0z"/><path fill="gray" d="M.1 172.2V47.4H400V297H0z"/><path fill="none" d="M.1 172.2V47.4H400V297H0z"/><path fill="none" d="M.1 172.2V47.4H400V297H0z"/><path fill="none" d="M.1 172.2V47.4H400V297H0z"/><path fill="#202020" d="M.1 172.2V47.4H400V297H0z"/><path fill="#8de53e" d="M34.8 237.8l-10-75.5h11.9l5.1 47.4 9.7-41.5h7.3l9.7 41.4 4-47.3h11.1l-9.8 75.5h-8.6l-10.7-46.5-10.9 46.5zM108.3 239.3c-4.4 0-9-.7-12.8-3a14.6 14.6 0 01-6.9-12.3c-.2-4.8 1.7-9.8 5.2-13.2a27 27 0 0112.5-6.5 66.4 66.4 0 0120.2-1.5c4-.2 2.6 6.4 2.8 9.7-7.3-.6-15.5-1-21.4 1.6-6 2.3-7.2 7.5-4.4 11.8 3.1 3.5 9.2 3 12.9 2 2.6-1 4.8-2.8 6.2-5.2 2-3.2 2.6-7 2.9-10.7.3-3.7.1-7.4-.4-11-.5-2.8-1.6-5.8-3.8-7.7-2.5-2-5.8-2.6-9-2.5-6.2 0-10.5 3.1-13.5 5.9l-7.5-8.2c4-4 9.1-6.5 14.6-7.6 6-1.3 12.5-1 18.5.7 4.9 1.5 9.2 4.9 11.5 9.4 2.2 4.2 3 9 3 13.7v33.1h-14.1v-6c-2.5 3.3-6.2 6-10.4 6.7-2 .5-4 .8-6.1.8zM176.3 239.2c-6.5-.1-13.2-1-19-4-2.5-1.4-4.9-3-7-5l6.5-12c1 .1 1.4 1.1 1.7 2 .7 2 2.6 3.4 4.5 4.6 5.7 3.5 13 4.5 19.5 2.8 2.1-.7 4.1-2.3 4.7-4.5.5-2.3-1.1-4.8-3.3-5.6-6.1-2.9-13-4-19.1-6.7a19.6 19.6 0 01-8.8-7c-1.7-2.7-2.5-6-2-9.3.6-4.4 3.3-8.5 7.2-10.6 4.9-3 10.8-4 16.5-3.8a32.1 32.1 0 0120.7 8.3c.3.8-.5 1.5-1 2l-6 8.7c-.8-.7-.8-.5-1.3-1.5-.4-2-2-3.5-3.6-4.4a21.3 21.3 0 00-8.2-2.5c-3.3-.3-6.7.1-9.7 1.6-2 1-3 3.8-1.8 5.8 1.2 1.8 3.3 2.6 5.3 3.3 6 2.2 12.4 3.1 18 6.1 3 1.5 6 3.6 7.7 6.6a15.7 15.7 0 01-.1 15c-2.1 3.8-5.8 6.6-9.8 8.2a31 31 0 01-11.6 1.9zM300 239.3c-4 0-8-1.3-11-3.4-1.5-1.2-3-2.6-4.2-4.3l-2.4 6.2H272v-81.4H287v1.1c-.4.5-.8 1-1 1.6v28.6a18.8 18.8 0 0114.8-7.6c3.4 0 6.5.6 9.3 1.8 6.3 3 10 8.4 11.7 14.3 1.2 3.6 1.7 7.8 1.7 12.5a43 43 0 01-1.9 13.6c-1.2 3.8-3 7-5 9.5-4.7 5-10.2 7.4-16.5 7.5zm-2.8-10.7c1.7 0 3.4-.3 4.9-1 5.7-3.5 7.6-11.1 7.6-17.7-.1-5-.6-10.2-3.2-14.3-2.1-3.3-5.5-5.2-9-5.2-2.4 0-4.4.8-6.2 2.3-4.4 4.5-5.2 11.2-5.3 16.6 0 5 .4 10 2.6 14.3 2 3.4 5.2 5 8.6 5zM337 237.8V227H351v-34.8h-13.1v-10.8h26.9V227h12.6v10.8z" font-family="Inconsolata" font-size="192" font-weight="700" letter-spacing="0" style="line-height:1.25;-inkscape-font-specification:'Inconsolata Bold'" word-spacing="0"/><circle cx="356.5" cy="163.6" r="8.6" fill="#8de53e"/><path fill="#8de53e" d="M229.4 239.3c-4.3 0-8.9-.7-12.7-3a14.6 14.6 0 01-6.9-12.3c-.2-4.8 1.6-9.8 5.2-13.2a27 27 0 0112.5-6.5 66.4 66.4 0 0120.2-1.5c4-.2 2.6 6.4 2.7 9.7-7.2-.6-15.4-1-21.3 1.6-6 2.3-7.3 7.5-4.4 11.8 3.1 3.5 9.1 3 12.9 2 2.6-1 4.8-2.8 6.2-5.2 1.9-3.2 2.5-7 2.9-10.7.2-3.7.1-7.4-.4-11-.5-2.8-1.6-5.8-3.8-7.7-2.5-2-5.8-2.6-9-2.5-6.2 0-10.5 3.1-13.6 5.9l-7.4-8.2c4-4 9.1-6.5 14.5-7.6 6.2-1.3 12.6-1 18.6.7 4.9 1.5 9.2 4.9 11.5 9.4 2.2 4.2 3 9 3 13.7v33.1H246v-6c-2.5 3.3-6.1 6-10.3 6.7-2 .5-4 .8-6.2.8z" font-family="Inconsolata" font-size="192" font-weight="700" letter-spacing="0" style="line-height:1.25;-inkscape-font-specification:'Inconsolata Bold'" word-spacing="0"/></g></svg>